<svg xmlns="http://www.w3.org/2000/svg" width="120" height="25" viewBox="0 0 120 25" fill="none">
  <g clip-path="url(#clip0_2232_6584)">
    <path d="M57.8374 14.2864C57.514 14.4464 56.6077 13.5532 55.8273 12.0161C55.0468 10.4775 54.8637 9.2249 55.1891 9.06487C55.2143 9.05239 55.2415 9.0452 55.2736 9.0452C55.4621 9.0452 55.7642 9.26198 56.1079 9.65694C56.4517 10.0519 56.8383 10.6247 57.1977 11.3344C57.9782 12.8734 58.1613 14.1241 57.8378 14.286M57.3591 11.255C56.6777 9.91193 55.6579 8.63246 55.1076 8.90485C54.5574 9.17875 54.9856 10.7533 55.667 12.0948C56.2854 13.3153 57.1832 14.482 57.7549 14.482C57.8122 14.482 57.868 14.4695 57.9185 14.4449C58.0929 14.3579 58.1686 14.1389 58.1686 13.8366C58.1686 13.1927 57.8233 12.1697 57.3595 11.2553" fill="#A40F5F"/>
    <path d="M60.4155 18.9878C59.9983 19.2095 59.17 18.673 58.1426 17.5191C57.0742 16.3172 55.9057 14.5845 54.8545 12.6407C53.8049 10.695 52.9965 8.77244 52.5809 7.22625C52.1816 5.73833 52.1916 4.76 52.6076 4.53792C52.6707 4.50577 52.7407 4.48988 52.8198 4.48988C53.2749 4.49063 54.006 5.02482 54.8824 6.00807C55.9508 7.20847 57.1193 8.94117 58.169 10.8865C60.5049 15.2088 61.2165 18.5648 60.4158 18.9874M58.3269 10.8036C57.2704 8.84545 56.0942 7.10254 55.0174 5.89154C54.2362 5.01347 53.1712 4.04081 52.5235 4.38168C51.8773 4.72443 52.104 6.14237 52.4065 7.2724C52.8256 8.83145 53.6397 10.7681 54.6962 12.7243C55.755 14.6806 56.9304 16.4254 58.008 17.6364C58.6775 18.3897 59.5593 19.2144 60.2052 19.2155C60.3115 19.2155 60.4101 19.1924 60.5019 19.1448C60.7879 18.9938 60.916 18.6204 60.9168 18.0866C60.9187 16.5034 59.7949 13.5184 58.3273 10.804" fill="#A40F5F"/>
    <path d="M61.4058 21.2887C60.6739 21.6871 59.4171 21.0768 57.9567 19.6128C56.4505 18.1044 54.8759 15.8663 53.5242 13.3077C52.1705 10.7495 51.202 8.18226 50.7947 6.07805C50.4017 4.03552 50.5948 2.63536 51.3282 2.23699C51.4738 2.15679 51.6425 2.11745 51.8287 2.11745C52.5728 2.11745 53.6102 2.74394 54.7776 3.91294C56.2823 5.4213 57.8566 7.66131 59.2102 10.2176C60.5634 12.7758 61.5324 15.345 61.9381 17.4495C62.3331 19.4921 62.1381 20.8903 61.4058 21.2887ZM62.1117 17.4159C61.9064 16.3535 61.5603 15.1777 61.0953 13.9433C60.63 12.7103 60.0457 11.4203 59.3647 10.1344C58.0042 7.56182 56.4192 5.3078 54.9007 3.78658C53.3598 2.24229 52.0608 1.63736 51.2444 2.08037C50.4284 2.52527 50.2074 3.95569 50.6231 6.11173C51.0318 8.23409 52.0077 10.8191 53.3701 13.3913C54.7306 15.9654 56.3156 18.2194 57.8321 19.7391C59.0454 20.9543 60.1053 21.5876 60.9007 21.5876C61.1183 21.5876 61.3148 21.5414 61.4888 21.4453C62.3067 21.0023 62.5277 19.57 62.1117 17.4159Z" fill="#A40F5F"/>
    <path d="M9.15038 7.24668H8.97028C4.01844 6.96408 1.02822 8.92603 0 13.1337V22.9465C0 23.007 0.0302081 23.0358 0.0898596 23.0358H2.47974C2.53901 23.0358 2.5696 23.007 2.5696 22.9465V16.1667L2.7497 13.5797C3.24603 11.1267 4.97401 9.8635 7.93517 9.7886C8.43686 9.7886 8.94925 9.8635 9.46699 10.011V7.25727C9.36107 7.25008 9.25668 7.24668 9.15076 7.24668" fill="#A40F5F"/>
    <path d="M23.061 14.1154C21.8818 14.1154 18.305 14.0995 12.3314 14.0712C12.497 13.3864 12.7524 12.7777 13.0996 12.2424C14.3385 10.6356 15.7805 9.83361 17.4259 9.83361H17.8771C18.8086 9.83361 19.7703 10.1306 20.7629 10.7249C21.8366 11.4025 22.6026 12.5163 23.061 14.0712V14.1154ZM23.9634 10.5471C22.2496 8.49588 20.2215 7.46951 17.8767 7.46951H17.4702C16.208 7.46951 14.9167 7.84101 13.5933 8.58479C11.0692 10.3016 9.80655 12.5166 9.80655 15.2315C9.80655 16.5692 10.1683 17.8929 10.8891 19.2004C12.6098 21.7567 14.8628 23.0358 17.6519 23.0358H17.7417C18.7183 23.0358 19.6945 22.8436 20.6727 22.4558C22.6469 21.5929 24.0009 20.3157 24.7294 18.6204H22.0248C20.8073 19.9884 19.394 20.6717 17.7865 20.6717H17.5616C16.2692 20.6717 15.0964 20.2109 14.0445 19.2893C13.2334 18.6507 12.6618 17.6988 12.3306 16.4341V16.3895H25.405C25.4949 16.3895 25.5396 16.1231 25.5396 15.5871V14.9628C25.5396 13.4541 25.0146 11.9832 23.9627 10.5471" fill="#A40F5F"/>
    <path d="M35.0869 20.4723C32.1273 20.3978 30.3989 19.1327 29.9026 16.6797L29.7229 14.0927V7.31289C29.7229 7.25387 29.6923 7.2236 29.6326 7.2236H27.2431C27.182 7.2236 27.1533 7.25387 27.1533 7.31289V12.4436C27.1533 13.4984 27.1368 14.4646 27.1082 15.3415C27.1372 15.5871 27.1533 16.1829 27.1533 17.1257C28.1815 21.3333 31.1717 23.2957 36.1239 23.0142H36.304C36.3438 23.0142 36.3813 23.0142 36.421 23.0123V20.2937C35.9698 20.4129 35.5255 20.4719 35.0869 20.4719" fill="#A40F5F"/>
    <path d="M80.5994 11.4381C78.8569 8.64305 76.5282 7.24668 73.6118 7.24668H73.4317C70.5765 7.24668 68.2764 8.59879 66.5343 11.3045C66.038 12.1228 65.7072 13.2082 65.5417 14.5622C65.5722 15.9139 65.5883 16.9993 65.5883 17.8176V22.9465C65.5883 23.007 65.6174 23.0358 65.6785 23.0358H68.0665C68.1277 23.0358 68.1583 23.007 68.1583 22.9465V14.74C68.1583 14.2561 68.2929 13.6618 68.5629 12.9559C69.7138 10.8441 71.3661 9.78897 73.5223 9.78897C75.2576 9.78897 76.7156 10.5169 77.8952 11.9738C78.3847 12.584 78.73 13.4613 78.9326 14.6069C78.9024 15.8772 78.8879 18.0193 78.8879 21.0292V22.9469C78.8879 23.0074 78.917 23.0361 78.9781 23.0361H81.4124C81.472 23.0361 81.5026 23.0074 81.5026 22.9469V14.9182C81.5026 13.826 81.2025 12.6661 80.5998 11.4384" fill="#A40F5F"/>
    <path d="M85.8931 7.24668H83.5033C83.4425 7.24668 83.4134 7.27694 83.4134 7.33558V22.9465C83.4134 22.9983 83.4425 23.0286 83.5033 23.0358H85.8931C85.9455 23.0358 85.9761 23.007 85.983 22.9465V7.33558C85.983 7.27694 85.9528 7.24668 85.8931 7.24668Z" fill="#A40F5F"/>
    <path d="M100.348 15.3204C100.348 16.3305 100.017 17.3126 99.3556 18.2625C98.192 19.7501 96.7937 20.4935 95.164 20.4935H94.7127C93.9537 20.4935 93.1572 20.2714 92.3229 19.8246C90.4905 18.6647 89.5736 17.1488 89.5736 15.2753V15.0067C89.5736 13.655 90.1146 12.4202 91.1952 11.3045C92.2854 10.2944 93.5186 9.78897 94.8921 9.78897H95.029C95.6817 9.78897 96.4025 9.93652 97.1921 10.2354C99.296 11.4097 100.348 12.9858 100.348 14.9621V15.32L100.348 15.3204ZM101.566 10.7249C99.8141 8.40698 97.6513 7.24706 95.0745 7.24706H94.803C93.2547 7.24706 91.7677 7.73811 90.3398 8.71833C88.1155 10.428 87.0043 12.5397 87.0043 15.0514V15.2757C87.0043 17.0515 87.6498 18.7468 88.943 20.3603C90.739 22.1445 92.6165 23.0361 94.5782 23.0361H95.2542C96.5019 23.0361 97.8093 22.6499 99.1759 21.8762C101.67 20.1008 102.918 17.9285 102.918 15.365V14.9186C102.918 13.4988 102.467 12.1005 101.566 10.7253" fill="#A40F5F"/>
    <path d="M119.098 11.4381C117.355 8.64305 115.025 7.24668 112.11 7.24668H111.93C109.075 7.24668 106.775 8.59879 105.032 11.3045C104.536 12.1228 104.205 13.2082 104.04 14.5622C104.07 15.9139 104.085 16.9993 104.085 17.8176V22.9465C104.085 23.007 104.115 23.0358 104.176 23.0358H106.564C106.625 23.0358 106.656 23.007 106.656 22.9465V14.74C106.656 14.2561 106.791 13.6618 107.06 12.9559C108.211 10.8441 109.863 9.78897 112.02 9.78897C113.755 9.78897 115.213 10.5169 116.393 11.9738C116.882 12.584 117.227 13.4613 117.43 14.6069C117.4 15.8772 117.385 18.0193 117.385 21.0292V22.9469C117.385 23.0074 117.414 23.0361 117.476 23.0361H119.91C119.969 23.0361 120 23.0074 120 22.9469V14.9182C120 13.826 119.7 12.6661 119.097 11.4384" fill="#A40F5F"/>
    <path d="M61.94 22.7815C59.8453 23.8219 55.4973 19.6165 52.4459 13.5998C50.9282 10.6092 49.9179 7.5936 49.6009 5.11032C49.297 2.72124 49.6893 1.06988 50.6762 0.580718C50.8903 0.474033 51.1293 0.422203 51.3882 0.422203C53.6484 0.422203 57.4317 4.36314 60.1703 9.76249C61.688 12.7531 62.6967 15.7683 63.0153 18.2519C63.3193 20.641 62.9273 22.2924 61.94 22.7815ZM63.3716 18.2073C63.0497 15.6847 62.0283 12.6283 60.4927 9.60398C58.1047 4.89657 55.1034 1.43609 52.7499 0.393829C52.5036 0.223208 50.7557 -0.775173 45.8846 1.26547C41.062 3.28304 40.6754 11.5966 40.488 15.592C40.472 15.9408 40.4666 16.2571 40.4414 16.5329C40.3118 17.9474 39.17 18.9257 38.1578 19.5216V22.9109C40.6483 22.7846 45.5378 22.6351 48.0209 23.2132C48.6087 23.3502 49.2832 23.5514 49.9952 23.7648C51.8708 24.3251 54.1218 24.9996 56.4161 24.9996C58.3529 24.9996 60.3218 24.5192 62.1232 23.0868C63.2542 22.5054 63.6982 20.7742 63.3713 18.2069" fill="#A40F5F"/>
  </g>
  <defs>
    <clipPath id="clip0_2232_6584">
      <rect width="120" height="25" fill="white"/>
    </clipPath>
  </defs>
</svg>
